<svg width="70" height="70" viewBox="0 0 70 70" fill="none" xmlns="http://www.w3.org/2000/svg">
<path d="M35 0C15.6714 0 0 15.6714 0 35C0 54.3286 15.6714 70 35 70C54.3286 70 70 54.3286 70 35C70 15.6714 54.3286 0 35 0ZM35 64.2857C18.8286 64.2857 5.71429 51.1714 5.71429 35C5.71429 18.8286 18.8286 5.71429 35 5.71429C51.1714 5.71429 64.2857 18.8286 64.2857 35C64.2857 51.1714 51.1714 64.2857 35 64.2857Z" fill="#FF5555"/>
<path d="M17.1428 12.1428V22.1428H41.4285C41.4285 22.1428 43.5714 23.5714 43.5714 26.4285C43.5714 29.2857 41.0714 28.9285 41.0714 28.9285L17.1428 29.2857V40H41.4285C41.4285 40 44.2857 40.7143 44.2857 42.8571C44.2857 45 43.5714 47.1428 42.1428 47.1428H17.1428V57.1428H44.5785C46.2428 57.1428 47.8714 56.6143 49.1928 55.6071C50.3 54.7643 51.5857 53.4928 52.75 51.6214C52.9357 51.3214 53.1357 50.9357 53.3286 50.5071C54.6286 47.6428 55.0143 44.4428 54.5714 41.3285L54.2857 39.2857C54.2857 39.2857 53.5714 35.7143 52.1428 35C52.1428 35 55 33.5714 55 28.5714C55 23.5714 53.5714 19.2857 53.5714 19.2857C53.5714 19.2857 51.4285 12.1428 42.8571 12.1428C34.2857 12.1428 17.1428 12.1428 17.1428 12.1428Z" fill="#FF5555"/>
</svg>
